<svg width="25" height="24" viewBox="0 0 25 24" fill="none" xmlns="http://www.w3.org/2000/svg">
<path d="M4.3903 7.14062H9.3838C9.64867 7.14062 9.90269 7.24392 10.09 7.42778C10.2773 7.61163 10.3825 7.861 10.3825 8.12102C10.3825 8.38103 10.2773 8.6304 10.09 8.81426C9.90269 8.99812 9.64867 9.10141 9.3838 9.10141H4.3903C4.12543 9.10141 3.87141 8.99812 3.68411 8.81426C3.49682 8.6304 3.3916 8.38103 3.3916 8.12102C3.3916 7.861 3.49682 7.61163 3.68411 7.42778C3.87141 7.24392 4.12543 7.14062 4.3903 7.14062ZM11.3812 14.9838H16.3747C16.6396 14.9838 16.8936 15.0871 17.0809 15.2709C17.2682 15.4548 17.3734 15.7041 17.3734 15.9642C17.3734 16.2242 17.2682 16.4735 17.0809 16.6574C16.8936 16.8413 16.6396 16.9445 16.3747 16.9445H11.3812C11.1163 16.9445 10.8623 16.8413 10.675 16.6574C10.4877 16.4735 10.3825 16.2242 10.3825 15.9642C10.3825 15.7041 10.4877 15.4548 10.675 15.2709C10.8623 15.0871 11.1163 14.9838 11.3812 14.9838ZM4.3903 11.0622H16.3747C16.6396 11.0622 16.8936 11.1655 17.0809 11.3493C17.2682 11.5332 17.3734 11.7826 17.3734 12.0426C17.3734 12.3026 17.2682 12.552 17.0809 12.7358C16.8936 12.9197 16.6396 13.023 16.3747 13.023H4.3903C4.12543 13.023 3.87141 12.9197 3.68411 12.7358C3.49682 12.552 3.3916 12.3026 3.3916 12.0426C3.3916 11.7826 3.49682 11.5332 3.68411 11.3493C3.87141 11.1655 4.12543 11.0622 4.3903 11.0622Z" fill="black"/>
<path d="M13.1091 7.20187C13.1091 7.60564 12.8662 8.12027 12.8662 8.12027C12.8662 8.12027 12.6234 7.60564 12.6234 7.20187C12.6234 6.7981 12.7321 6.65808 12.8662 6.65808C13.0004 6.65808 13.1091 6.7981 13.1091 7.20187Z" fill="black"/>
<path d="M13.7015 7.63632C13.4106 7.92183 12.8682 8.11716 12.8682 8.11716C12.8682 8.11716 13.0672 7.5847 13.3581 7.29919C13.6489 7.01368 13.8266 6.99014 13.9215 7.08324C14.0163 7.17633 13.9923 7.35081 13.7015 7.63632Z" fill="black"/>
<path d="M13.8074 8.35458C13.3961 8.35458 12.8718 8.11619 12.8718 8.11619C12.8718 8.11619 13.3961 7.87781 13.8074 7.87781C14.2187 7.87781 14.3613 7.98454 14.3613 8.11619C14.3613 8.24785 14.2187 8.35458 13.8074 8.35458Z" fill="black"/>
<path d="M13.365 8.93528C13.0741 8.64977 12.8752 8.11731 12.8752 8.11731C12.8752 8.11731 13.4176 8.31264 13.7084 8.59815C13.9992 8.88366 14.0232 9.05813 13.9284 9.15123C13.8336 9.24432 13.6558 9.22079 13.365 8.93528Z" fill="black"/>
<path d="M12.6337 9.04013C12.6337 8.63636 12.8765 8.12174 12.8765 8.12174C12.8765 8.12174 13.1194 8.63636 13.1194 9.04013C13.1194 9.44391 13.0107 9.58392 12.8765 9.58392C12.7424 9.58392 12.6337 9.44391 12.6337 9.04013Z" fill="black"/>
<path d="M12.0412 8.60569C12.332 8.32018 12.8744 8.12485 12.8744 8.12485C12.8744 8.12485 12.6755 8.65731 12.3846 8.94282C12.0938 9.22832 11.916 9.25186 11.8212 9.15877C11.7264 9.06567 11.7504 8.8912 12.0412 8.60569Z" fill="black"/>
<path d="M11.9352 7.88743C12.3465 7.88743 12.8707 8.12581 12.8707 8.12581C12.8707 8.12581 12.3465 8.3642 11.9352 8.3642C11.5239 8.3642 11.3812 8.25747 11.3812 8.12581C11.3812 7.99416 11.5239 7.88743 11.9352 7.88743Z" fill="black"/>
<path d="M12.3776 7.30673C12.6684 7.59224 12.8674 8.1247 12.8674 8.1247C12.8674 8.1247 12.325 7.92936 12.0342 7.64385C11.7433 7.35835 11.7193 7.18387 11.8142 7.09077C11.909 6.99768 12.0867 7.02122 12.3776 7.30673Z" fill="black"/>
<path d="M20.073 11.1234C20.073 11.5272 19.8301 12.0418 19.8301 12.0418C19.8301 12.0418 19.5873 11.5272 19.5873 11.1234C19.5873 10.7197 19.696 10.5797 19.8301 10.5797C19.9642 10.5797 20.073 10.7197 20.073 11.1234Z" fill="black"/>
<path d="M20.6653 11.5579C20.3745 11.8434 19.8321 12.0387 19.8321 12.0387C19.8321 12.0387 20.0311 11.5063 20.3219 11.2208C20.6128 10.9352 20.7905 10.9117 20.8853 11.0048C20.9802 11.0979 20.9562 11.2724 20.6653 11.5579Z" fill="black"/>
<path d="M20.7713 12.2761C20.3599 12.2761 19.8357 12.0378 19.8357 12.0378C19.8357 12.0378 20.3599 11.7994 20.7713 11.7994C21.1826 11.7994 21.3252 11.9061 21.3252 12.0378C21.3252 12.1694 21.1826 12.2761 20.7713 12.2761Z" fill="black"/>
<path d="M20.3288 12.8568C20.038 12.5713 19.839 12.0389 19.839 12.0389C19.839 12.0389 20.3814 12.2342 20.6723 12.5197C20.9631 12.8052 20.9871 12.9797 20.8923 13.0728C20.7974 13.1659 20.6197 13.1424 20.3288 12.8568Z" fill="black"/>
<path d="M19.5976 12.9617C19.5976 12.5579 19.8404 12.0433 19.8404 12.0433C19.8404 12.0433 20.0833 12.5579 20.0833 12.9617C20.0833 13.3655 19.9745 13.5055 19.8404 13.5055C19.7063 13.5055 19.5976 13.3655 19.5976 12.9617Z" fill="black"/>
<path d="M19.0051 12.5273C19.2959 12.2417 19.8383 12.0464 19.8383 12.0464C19.8383 12.0464 19.6393 12.5789 19.3485 12.8644C19.0576 13.1499 18.8799 13.1734 18.7851 13.0803C18.6902 12.9872 18.7142 12.8128 19.0051 12.5273Z" fill="black"/>
<path d="M18.899 11.809C19.3103 11.809 19.8346 12.0474 19.8346 12.0474C19.8346 12.0474 19.3103 12.2858 18.899 12.2858C18.4877 12.2858 18.3451 12.179 18.3451 12.0474C18.3451 11.9157 18.4877 11.809 18.899 11.809Z" fill="black"/>
<path d="M19.3414 11.2283C19.6323 11.5138 19.8313 12.0463 19.8313 12.0463C19.8313 12.0463 19.2889 11.8509 18.998 11.5654C18.7072 11.2799 18.6832 11.1054 18.778 11.0123C18.8729 10.9192 19.0506 10.9428 19.3414 11.2283Z" fill="black"/>
</svg>
