<svg width="67" height="17" viewBox="0 0 67 17" fill="none" xmlns="http://www.w3.org/2000/svg">
<path d="M59.7029 16.0803C58.7779 16.0803 58.0598 15.8458 57.5486 15.3768C57.0374 14.9078 56.7819 14.2512 56.7819 13.407V6.372C56.7819 5.55124 57.0253 4.91223 57.5121 4.45496C58.0111 3.99768 58.6988 3.76904 59.5751 3.76904H65.2528C65.6179 3.76904 65.8978 3.85112 66.0925 4.01527C66.2873 4.16769 66.3846 4.39047 66.3846 4.68359C66.3846 4.96499 66.2812 5.18777 66.0743 5.35192C65.8796 5.50435 65.6057 5.58056 65.2528 5.58056H59.995C59.7515 5.58056 59.5568 5.65677 59.4108 5.80919C59.2769 5.96162 59.2099 6.17267 59.2099 6.44235V8.88701H63.8653C64.2304 8.88701 64.5103 8.96909 64.7051 9.13324C64.8998 9.28566 64.9972 9.50844 64.9972 9.80156C64.9972 10.083 64.8937 10.3057 64.6868 10.4699C64.4921 10.6223 64.2182 10.6985 63.8653 10.6985H59.2099V13.407C59.2099 13.6767 59.2769 13.8877 59.4108 14.0402C59.5568 14.1926 59.7515 14.2688 59.995 14.2688H65.6544C66.0195 14.2688 66.2994 14.3509 66.4942 14.515C66.6889 14.6674 66.7863 14.8902 66.7863 15.1833C66.7863 15.4647 66.6828 15.6875 66.4759 15.8517C66.2812 16.0041 66.0074 16.0803 65.6544 16.0803H59.7029Z" fill="#111111"/>
<path d="M44.6134 16.2565C44.2482 16.2565 43.9561 16.1627 43.7371 15.9751C43.518 15.7875 43.4084 15.5296 43.4084 15.2013V8.57077C43.4084 7.01135 43.9135 5.79195 44.9237 4.91257C45.9339 4.03319 47.3335 3.59351 49.1227 3.59351C50.9118 3.59351 52.3114 4.03319 53.3216 4.91257C54.3318 5.79195 54.8369 7.01135 54.8369 8.57077V15.2013C54.8369 15.5296 54.7273 15.7875 54.5082 15.9751C54.2892 16.1627 53.9971 16.2565 53.6319 16.2565C53.2668 16.2565 52.9686 16.1627 52.7374 15.9751C52.5183 15.7758 52.4088 15.5178 52.4088 15.2013V8.51801C52.4088 7.52139 52.1289 6.75926 51.569 6.23163C51.0091 5.70401 50.1937 5.4402 49.1227 5.4402C48.0516 5.4402 47.2362 5.70401 46.6763 6.23163C46.1165 6.75926 45.8365 7.52139 45.8365 8.51801V15.2013C45.8365 15.5178 45.7209 15.7758 45.4897 15.9751C45.2706 16.1627 44.9785 16.2565 44.6134 16.2565Z" fill="#111111"/>
<path d="M39.6898 16.2565C39.3247 16.2565 39.0326 16.1627 38.8135 15.9751C38.5944 15.7875 38.4849 15.5296 38.4849 15.2013V4.64876C38.4849 4.32046 38.5944 4.06251 38.8135 3.87491C39.0326 3.68731 39.3247 3.59351 39.6898 3.59351C40.0427 3.59351 40.3348 3.68731 40.5661 3.87491C40.7973 4.06251 40.9129 4.32046 40.9129 4.64876V15.2013C40.9129 15.5296 40.7973 15.7875 40.5661 15.9751C40.3348 16.1627 40.0427 16.2565 39.6898 16.2565Z" fill="#111111"/>
<path d="M24.5304 6.372C24.5304 5.55124 24.7738 4.91223 25.2606 4.45496C25.7597 3.99768 26.4473 3.76904 27.3236 3.76904H30.5732C32.3867 3.76904 33.7559 4.10907 34.6809 4.78912C35.6059 5.46917 36.0683 6.48338 36.0683 7.83176C36.0683 9.08634 35.6789 10.0654 34.8999 10.7689C34.1332 11.4724 33.0987 11.8241 31.7964 11.8241L34.5713 14.4798C34.7904 14.6909 34.8999 14.9313 34.8999 15.2009C34.8999 15.4823 34.7721 15.7286 34.5166 15.9396C34.2488 16.1389 33.9871 16.2386 33.7315 16.2386C33.3786 16.2386 33.0561 16.0862 32.764 15.7813L28.8206 11.8945H26.9585V15.2009C26.9585 15.5292 26.8429 15.7872 26.6116 15.9748C26.3804 16.1624 26.0883 16.2562 25.7353 16.2562C25.3702 16.2562 25.0781 16.1624 24.859 15.9748C24.6399 15.7872 24.5304 15.5292 24.5304 15.2009V6.372ZM30.5002 10.083C31.3035 10.083 31.9303 10.0067 32.3806 9.85432C32.8309 9.7019 33.1473 9.4674 33.3299 9.15082C33.5246 8.82252 33.622 8.38284 33.622 7.83176C33.622 7.03446 33.3664 6.45993 32.8552 6.10818C32.3562 5.75643 31.5712 5.58056 30.5002 5.58056H27.7435C27.5001 5.58056 27.3053 5.65677 27.1593 5.80919C27.0254 5.96162 26.9585 6.17267 26.9585 6.44235V10.083H30.5002Z" fill="#111111"/>
<path d="M20.7204 16.2565C20.3553 16.2565 20.0632 16.1627 19.8441 15.9751C19.625 15.7875 19.5155 15.5296 19.5155 15.2013V4.64876C19.5155 4.32046 19.625 4.06251 19.8441 3.87491C20.0632 3.68731 20.3553 3.59351 20.7204 3.59351C21.0734 3.59351 21.3655 3.68731 21.5967 3.87491C21.828 4.06251 21.9436 4.32046 21.9436 4.64876V15.2013C21.9436 15.5296 21.828 15.7875 21.5967 15.9751C21.3655 16.1627 21.0734 16.2565 20.7204 16.2565Z" fill="#111111"/>
<path d="M2.0771 16.2565C1.71198 16.2565 1.41988 16.1627 1.2008 15.9751C0.98173 15.7875 0.872192 15.5296 0.872192 15.2013V7.95521C0.872192 6.59511 1.27383 5.52813 2.0771 4.75428C2.88038 3.98043 3.98793 3.59351 5.39974 3.59351C6.08131 3.59351 6.72028 3.75766 7.31665 4.08596C7.92519 4.40253 8.44853 4.85981 8.88669 5.45778C9.31266 4.84808 9.82384 4.38494 10.4202 4.06837C11.0288 3.75179 11.686 3.59351 12.3919 3.59351C13.8037 3.59351 14.9112 3.98043 15.7145 4.75428C16.5178 5.52813 16.9194 6.59511 16.9194 7.95521V15.2013C16.9194 15.5178 16.8038 15.7758 16.5726 15.9751C16.3535 16.1627 16.0614 16.2565 15.6963 16.2565C15.3311 16.2565 15.039 16.1627 14.82 15.9751C14.6009 15.7875 14.4914 15.5296 14.4914 15.2013V7.95521C14.4914 7.06411 14.321 6.4251 13.9802 6.03817C13.6394 5.63952 13.0795 5.4402 12.3006 5.4402C11.5947 5.4402 11.047 5.65711 10.6575 6.09093C10.2802 6.52476 10.0916 7.14618 10.0916 7.95521V15.2013C10.0916 15.5296 9.98206 15.7875 9.76298 15.9751C9.54391 16.1627 9.25181 16.2565 8.88669 16.2565C8.52156 16.2565 8.22946 16.1627 8.01038 15.9751C7.80348 15.7875 7.70003 15.5296 7.70003 15.2013V7.95521C7.70003 7.16963 7.5053 6.55407 7.11583 6.10852C6.72636 5.66297 6.18476 5.4402 5.49102 5.4402C4.71209 5.4402 4.15223 5.63952 3.81145 6.03817C3.47066 6.4251 3.30027 7.06411 3.30027 7.95521V15.2013C3.30027 15.5178 3.18465 15.7758 2.9534 15.9751C2.73433 16.1627 2.44223 16.2565 2.0771 16.2565Z" fill="#111111"/>
<ellipse cx="49.1224" cy="1.44674" rx="1.21386" ry="1.16939" fill="#111111"/>
<rect x="47.3795" y="9.92688" width="3.48585" height="3.35816" fill="#111111"/>
</svg>
