<svg width="67" height="17" viewBox="0 0 67 17" fill="none" xmlns="http://www.w3.org/2000/svg">
<path d="M59.2092 16.7728C58.283 16.7728 57.564 16.538 57.0522 16.0684C56.5403 15.5988 56.2844 14.9414 56.2844 14.0961V7.0519C56.2844 6.23008 56.5282 5.59023 57.0156 5.13236C57.5153 4.67449 58.2038 4.44556 59.0813 4.44556H64.7664C65.132 4.44556 65.4122 4.52774 65.6072 4.6921C65.8022 4.84473 65.8997 5.06779 65.8997 5.3613C65.8997 5.64307 65.7961 5.86613 65.589 6.03049C65.394 6.18312 65.1198 6.25943 64.7664 6.25943H59.5017C59.258 6.25943 59.063 6.33574 58.9167 6.48836C58.7827 6.64099 58.7157 6.85231 58.7157 7.12234V9.57019H63.3771C63.7427 9.57019 64.023 9.65237 64.218 9.81673C64.4129 9.96936 64.5104 10.1924 64.5104 10.4859C64.5104 10.7677 64.4068 10.9908 64.1997 11.1551C64.0047 11.3077 63.7305 11.3841 63.3771 11.3841H58.7157V14.0961C58.7157 14.3661 58.7827 14.5774 58.9167 14.73C59.063 14.8827 59.258 14.959 59.5017 14.959H65.1685C65.5341 14.959 65.8144 15.0412 66.0094 15.2055C66.2044 15.3581 66.3019 15.5812 66.3019 15.8747C66.3019 16.1565 66.1983 16.3796 65.9911 16.5439C65.7961 16.6965 65.5219 16.7728 65.1685 16.7728H59.2092Z" fill="#B090EE"/>
<path d="M44.1 16.9493C43.7344 16.9493 43.442 16.8554 43.2226 16.6675C43.0032 16.4797 42.8936 16.2214 42.8936 15.8927V9.25352C42.8936 7.69207 43.3993 6.47108 44.4108 5.59056C45.4223 4.71004 46.8238 4.26978 48.6152 4.26978C50.4066 4.26978 51.8081 4.71004 52.8196 5.59056C53.8311 6.47108 54.3368 7.69207 54.3368 9.25352V15.8927C54.3368 16.2214 54.2272 16.4797 54.0078 16.6675C53.7884 16.8554 53.496 16.9493 53.1304 16.9493C52.7648 16.9493 52.4662 16.8554 52.2346 16.6675C52.0153 16.4679 51.9056 16.2096 51.9056 15.8927V9.20069C51.9056 8.20277 51.6253 7.43965 51.0647 6.91134C50.5041 6.38303 49.6876 6.11887 48.6152 6.11887C47.5428 6.11887 46.7263 6.38303 46.1657 6.91134C45.6051 7.43965 45.3248 8.20277 45.3248 9.20069V15.8927C45.3248 16.2096 45.209 16.4679 44.9775 16.6675C44.7581 16.8554 44.4656 16.9493 44.1 16.9493Z" fill="#B090EE"/>
<path d="M39.1701 16.9493C38.8045 16.9493 38.512 16.8554 38.2927 16.6675C38.0733 16.4797 37.9636 16.2214 37.9636 15.8927V5.3264C37.9636 4.99767 38.0733 4.73939 38.2927 4.55154C38.512 4.3637 38.8045 4.26978 39.1701 4.26978C39.5235 4.26978 39.816 4.3637 40.0475 4.55154C40.2791 4.73939 40.3949 4.99767 40.3949 5.3264V15.8927C40.3949 16.2214 40.2791 16.4797 40.0475 16.6675C39.816 16.8554 39.5235 16.9493 39.1701 16.9493Z" fill="#B090EE"/>
<path d="M23.991 7.0519C23.991 6.23008 24.2347 5.59023 24.7222 5.13236C25.2218 4.67449 25.9104 4.44556 26.7878 4.44556H30.0417C31.8575 4.44556 33.2285 4.78602 34.1547 5.46696C35.0808 6.1479 35.5439 7.16343 35.5439 8.51356C35.5439 9.76977 35.154 10.7501 34.374 11.4545C33.6063 12.1589 32.5704 12.5111 31.2664 12.5111L34.045 15.1703C34.2643 15.3816 34.374 15.6223 34.374 15.8923C34.374 16.1741 34.2461 16.4206 33.9901 16.632C33.722 16.8316 33.46 16.9313 33.2041 16.9313C32.8507 16.9313 32.5277 16.7787 32.2353 16.4735L28.2868 12.5816H26.4222V15.8923C26.4222 16.2211 26.3064 16.4793 26.0749 16.6672C25.8433 16.855 25.5509 16.949 25.1974 16.949C24.8318 16.949 24.5394 16.855 24.32 16.6672C24.1006 16.4793 23.991 16.2211 23.991 15.8923V7.0519ZM29.9685 10.7677C30.7729 10.7677 31.4005 10.6914 31.8514 10.5388C32.3023 10.3861 32.6191 10.1513 32.8019 9.83435C32.9969 9.50562 33.0944 9.06536 33.0944 8.51356C33.0944 7.71522 32.8385 7.13995 32.3267 6.78774C31.827 6.43553 31.041 6.25943 29.9685 6.25943H27.2083C26.9645 6.25943 26.7695 6.33574 26.6233 6.48836C26.4892 6.64099 26.4222 6.85231 26.4222 7.12234V10.7677H29.9685Z" fill="#B090EE"/>
<path d="M20.176 16.9493C19.8104 16.9493 19.5179 16.8554 19.2985 16.6675C19.0792 16.4797 18.9695 16.2214 18.9695 15.8927V5.3264C18.9695 4.99767 19.0792 4.73939 19.2985 4.55154C19.5179 4.3637 19.8104 4.26978 20.176 4.26978C20.5294 4.26978 20.8219 4.3637 21.0534 4.55154C21.285 4.73939 21.4007 4.99767 21.4007 5.3264V15.8927C21.4007 16.2214 21.285 16.4797 21.0534 16.6675C20.8219 16.8554 20.5294 16.9493 20.176 16.9493Z" fill="#B090EE"/>
<path d="M1.50824 16.9493C1.14264 16.9493 0.850158 16.8554 0.630798 16.6675C0.411438 16.4797 0.301758 16.2214 0.301758 15.8927V8.63716C0.301758 7.27529 0.703918 6.20692 1.50824 5.43206C2.31256 4.6572 3.42155 4.26978 4.8352 4.26978C5.51766 4.26978 6.15746 4.43414 6.7546 4.76287C7.36394 5.07985 7.88797 5.53773 8.32669 6.13648C8.75322 5.52599 9.26506 5.06224 9.86221 4.74526C10.4715 4.42827 11.1296 4.26978 11.8364 4.26978C13.2501 4.26978 14.3591 4.6572 15.1634 5.43206C15.9677 6.20692 16.3699 7.27529 16.3699 8.63716V15.8927C16.3699 16.2096 16.2541 16.4679 16.0226 16.6675C15.8032 16.8554 15.5107 16.9493 15.1451 16.9493C14.7795 16.9493 14.4871 16.8554 14.2677 16.6675C14.0483 16.4797 13.9387 16.2214 13.9387 15.8927V8.63716C13.9387 7.7449 13.768 7.10505 13.4268 6.71762C13.0856 6.31845 12.525 6.11887 11.745 6.11887C11.0382 6.11887 10.4898 6.33606 10.0998 6.77045C9.72206 7.20484 9.53317 7.82708 9.53317 8.63716V15.8927C9.53317 16.2214 9.42349 16.4797 9.20413 16.6675C8.98477 16.8554 8.69229 16.9493 8.32669 16.9493C7.96109 16.9493 7.6686 16.8554 7.44924 16.6675C7.24207 16.4797 7.13848 16.2214 7.13848 15.8927V8.63716C7.13848 7.85056 6.9435 7.2342 6.55352 6.78807C6.16355 6.34193 5.62124 6.11887 4.9266 6.11887C4.14665 6.11887 3.58607 6.31845 3.24484 6.71762C2.90361 7.10505 2.733 7.7449 2.733 8.63716V15.8927C2.733 16.2096 2.61723 16.4679 2.38568 16.6675C2.16632 16.8554 1.87384 16.9493 1.50824 16.9493Z" fill="#B090EE"/>
<ellipse cx="48.6149" cy="2.12013" rx="1.21544" ry="1.17092" fill="#B090EE"/>
<rect x="46.8699" y="10.6113" width="3.49038" height="3.36253" fill="#B090EE"/>
</svg>
