<svg width="44" height="44" viewBox="0 0 44 44" fill="none" xmlns="http://www.w3.org/2000/svg">
<path d="M1 22C1 10.402 10.402 1 22 1C33.598 1 43 10.402 43 22C43 33.598 33.598 43 22 43C10.402 43 1 33.598 1 22Z" fill="white" stroke="#EFEFEF"/>
<path d="M21.9965 16.4187C23.7053 16.4187 24.858 17.1568 25.5152 17.7736L28.0834 15.266C26.5061 13.7999 24.4535 12.9 21.9965 12.9C18.4374 12.9 15.3636 14.9425 13.8672 17.9151L16.8095 20.2002C17.5476 18.0061 19.5901 16.4187 21.9965 16.4187V16.4187Z" fill="#EA4335"/>
<path d="M30.736 22.2022C30.736 21.454 30.6753 20.908 30.5439 20.3418H22V23.7189H27.0151C26.914 24.5581 26.368 25.822 25.1547 26.6714L28.0262 28.8958C29.7451 27.3084 30.736 24.9727 30.736 22.2022V22.2022Z" fill="#4285F4"/>
<path d="M16.8215 23.7998C16.6294 23.2336 16.5182 22.6269 16.5182 22.0001C16.5182 21.3732 16.6294 20.7665 16.8114 20.2003L13.8691 17.9152C13.2523 19.1487 12.8984 20.5339 12.8984 22.0001C12.8984 23.4662 13.2523 24.8514 13.8691 26.0849L16.8215 23.7998V23.7998Z" fill="#FBBC05"/>
<path d="M21.9981 31.1C24.4551 31.1 26.5178 30.2911 28.0244 28.8958L25.1528 26.6714C24.3844 27.2072 23.353 27.5814 21.9981 27.5814C19.5917 27.5814 17.5492 25.9939 16.8212 23.7998L13.8789 26.0849C15.3754 29.0576 18.439 31.1 21.9981 31.1V31.1Z" fill="#34A853"/>
</svg>
