<svg width="132" height="33" viewBox="0 0 132 33" fill="none" xmlns="http://www.w3.org/2000/svg">
<path d="M117.815 32.1471C115.963 32.1471 114.525 31.6775 113.501 30.7383C112.477 29.7991 111.965 28.4842 111.965 26.7936V12.7052C111.965 11.0616 112.453 9.78191 113.428 8.86617C114.427 7.95042 115.804 7.49255 117.559 7.49255H128.929C129.66 7.49255 130.221 7.65692 130.611 7.98565C131.001 8.29089 131.196 8.73702 131.196 9.32404C131.196 9.88757 130.989 10.3337 130.574 10.6624C130.184 10.9677 129.636 11.1203 128.929 11.1203H118.4C117.912 11.1203 117.522 11.2729 117.23 11.5782C116.962 11.8834 116.828 12.3061 116.828 12.8461V17.7418H126.151C126.882 17.7418 127.442 17.9062 127.832 18.2349C128.222 18.5402 128.417 18.9863 128.417 19.5733C128.417 20.1368 128.21 20.583 127.796 20.9117C127.406 21.2169 126.857 21.3696 126.151 21.3696H116.828V26.7936C116.828 27.3336 116.962 27.7563 117.23 28.0615C117.522 28.3668 117.912 28.5194 118.4 28.5194H129.734C130.465 28.5194 131.025 28.6838 131.415 29.0125C131.805 29.3177 132 29.7639 132 30.3509C132 30.9144 131.793 31.3605 131.379 31.6893C130.989 31.9945 130.44 32.1471 129.734 32.1471H117.815Z" fill="#111111"/>
<path d="M87.5966 32.5C86.8654 32.5 86.2804 32.3121 85.8417 31.9365C85.403 31.5608 85.1836 31.0442 85.1836 30.3867V17.1085C85.1836 13.9856 86.1951 11.5436 88.2181 9.78255C90.2411 8.02151 93.044 7.14099 96.6269 7.14099C100.21 7.14099 103.013 8.02151 105.036 9.78255C107.059 11.5436 108.07 13.9856 108.07 17.1085V30.3867C108.07 31.0442 107.851 31.5608 107.412 31.9365C106.973 32.3121 106.388 32.5 105.657 32.5C104.926 32.5 104.329 32.3121 103.866 31.9365C103.427 31.5373 103.208 31.0207 103.208 30.3867V17.0028C103.208 15.007 102.647 13.4807 101.526 12.4241C100.405 11.3675 98.7717 10.8392 96.6269 10.8392C94.482 10.8392 92.849 11.3675 91.7278 12.4241C90.6067 13.4807 90.0461 15.007 90.0461 17.0028V30.3867C90.0461 31.0207 89.8145 31.5373 89.3514 31.9365C88.9127 32.3121 88.3278 32.5 87.5966 32.5Z" fill="#111111"/>
<path d="M77.7367 32.5C77.0055 32.5 76.4205 32.3121 75.9818 31.9365C75.5431 31.5608 75.3237 31.0442 75.3237 30.3867V9.25424C75.3237 8.59679 75.5431 8.08021 75.9818 7.70453C76.4205 7.32884 77.0055 7.14099 77.7367 7.14099C78.4435 7.14099 79.0285 7.32884 79.4916 7.70453C79.9547 8.08021 80.1862 8.59679 80.1862 9.25424V30.3867C80.1862 31.0442 79.9547 31.5608 79.4916 31.9365C79.0285 32.3121 78.4435 32.5 77.7367 32.5Z" fill="#111111"/>
<path d="M47.3784 12.7052C47.3784 11.0616 47.8659 9.78191 48.8408 8.86617C49.8401 7.95042 51.2172 7.49255 52.9721 7.49255H59.4798C63.1114 7.49255 65.8534 8.17349 67.7058 9.53536C69.5582 10.8972 70.4844 12.9283 70.4844 15.6286C70.4844 18.141 69.7044 20.1016 68.1445 21.5104C66.609 22.9193 64.5373 23.6237 61.9293 23.6237L67.4864 28.942C67.9252 29.3647 68.1445 29.846 68.1445 30.3861C68.1445 30.9496 67.8886 31.4427 67.3768 31.8654C66.8405 32.2645 66.3165 32.4641 65.8047 32.4641C65.0979 32.4641 64.452 32.1589 63.867 31.5484L55.97 23.7646H52.2409V30.3861C52.2409 31.0436 52.0094 31.5601 51.5463 31.9358C51.0832 32.3115 50.4982 32.4993 49.7914 32.4993C49.0602 32.4993 48.4752 32.3115 48.0365 31.9358C47.5978 31.5601 47.3784 31.0436 47.3784 30.3861V12.7052ZM59.3336 20.1368C60.9422 20.1368 62.1974 19.9842 63.0992 19.679C64.001 19.3737 64.6348 18.9041 65.0004 18.2701C65.3903 17.6127 65.5853 16.7322 65.5853 15.6286C65.5853 14.0319 65.0735 12.8813 64.0498 12.1769C63.0505 11.4725 61.4784 11.1203 59.3336 11.1203H53.813C53.3255 11.1203 52.9355 11.2729 52.6431 11.5782C52.375 11.8834 52.2409 12.3061 52.2409 12.8461V20.1368H59.3336Z" fill="#111111"/>
<path d="M39.7484 32.5C39.0172 32.5 38.4322 32.3121 37.9935 31.9365C37.5548 31.5608 37.3354 31.0442 37.3354 30.3867V9.25424C37.3354 8.59679 37.5548 8.08021 37.9935 7.70453C38.4322 7.32884 39.0172 7.14099 39.7484 7.14099C40.4552 7.14099 41.0402 7.32884 41.5033 7.70453C41.9664 8.08021 42.1979 8.59679 42.1979 9.25424V30.3867C42.1979 31.0442 41.9664 31.5608 41.5033 31.9365C41.0402 32.3121 40.4552 32.5 39.7484 32.5Z" fill="#111111"/>
<path d="M2.41296 32.5C1.68176 32.5 1.0968 32.3121 0.658081 31.9365C0.21936 31.5608 0 31.0442 0 30.3867V15.8758C0 13.152 0.804321 11.0153 2.41296 9.46557C4.0216 7.91585 6.23958 7.14099 9.06689 7.14099C10.4318 7.14099 11.7114 7.46972 12.9057 8.12717C14.1244 8.76115 15.1724 9.67689 16.0499 10.8744C16.9029 9.65341 17.9266 8.72593 19.1209 8.09195C20.3396 7.45798 21.6557 7.14099 23.0694 7.14099C25.8967 7.14099 28.1147 7.91585 29.7233 9.46557C31.3319 11.0153 32.1363 13.152 32.1363 15.8758V30.3867C32.1363 31.0207 31.9047 31.5373 31.4416 31.9365C31.0029 32.3121 30.4179 32.5 29.6867 32.5C28.9555 32.5 28.3706 32.3121 27.9319 31.9365C27.4931 31.5608 27.2738 31.0442 27.2738 30.3867V15.8758C27.2738 14.0912 26.9326 12.8115 26.2501 12.0367C25.5677 11.2383 24.4465 10.8392 22.8866 10.8392C21.4729 10.8392 20.3761 11.2736 19.5962 12.1424C18.8406 13.0111 18.4628 14.2556 18.4628 15.8758V30.3867C18.4628 31.0442 18.2435 31.5608 17.8047 31.9365C17.366 32.3121 16.7811 32.5 16.0499 32.5C15.3187 32.5 14.7337 32.3121 14.295 31.9365C13.8806 31.5608 13.6735 31.0442 13.6735 30.3867V15.8758C13.6735 14.3026 13.2835 13.0698 12.5035 12.1776C11.7236 11.2853 10.639 10.8392 9.24969 10.8392C7.68979 10.8392 6.56862 11.2383 5.88617 12.0367C5.20371 12.8115 4.86248 14.0912 4.86248 15.8758V30.3867C4.86248 31.0207 4.63094 31.5373 4.16784 31.9365C3.72912 32.3121 3.14416 32.5 2.41296 32.5Z" fill="#111111"/>
<ellipse cx="96.6262" cy="2.84183" rx="2.43087" ry="2.34183" fill="#111111"/>
<rect x="93.1362" y="19.8242" width="6.98077" height="6.72506" fill="#111111"/>
</svg>
