<svg width="66" height="17" viewBox="0 0 66 17" fill="none" xmlns="http://www.w3.org/2000/svg">
<path d="M58.9072 16.3236C57.981 16.3236 57.262 16.0888 56.7502 15.6192C56.2383 15.1496 55.9824 14.4921 55.9824 13.6468V6.60268C55.9824 5.78086 56.2262 5.14102 56.7136 4.68314C57.2133 4.22527 57.9018 3.99634 58.7793 3.99634H64.4644C64.83 3.99634 65.1102 4.07852 65.3052 4.24288C65.5002 4.39551 65.5977 4.61857 65.5977 4.91208C65.5977 5.19385 65.4941 5.41691 65.2869 5.58128C65.092 5.7339 64.8178 5.81021 64.4644 5.81021H59.1997C58.956 5.81021 58.761 5.88652 58.6147 6.03915C58.4807 6.19177 58.4137 6.4031 58.4137 6.67312V9.12097H63.0751C63.4407 9.12097 63.721 9.20315 63.9159 9.36752C64.1109 9.52014 64.2084 9.7432 64.2084 10.0367C64.2084 10.3185 64.1048 10.5415 63.8977 10.7059C63.7027 10.8585 63.4285 10.9348 63.0751 10.9348H58.4137V13.6468C58.4137 13.9169 58.4807 14.1282 58.6147 14.2808C58.761 14.4334 58.956 14.5098 59.1997 14.5098H64.8665C65.2321 14.5098 65.5124 14.5919 65.7074 14.7563C65.9024 14.9089 65.9999 15.132 65.9999 15.4255C65.9999 15.7073 65.8963 15.9303 65.6891 16.0947C65.4941 16.2473 65.2199 16.3236 64.8665 16.3236H58.9072Z" fill="#111111"/>
<path d="M43.7983 16.5001C43.4327 16.5001 43.1402 16.4061 42.9208 16.2183C42.7015 16.0304 42.5918 15.7722 42.5918 15.4434V8.80431C42.5918 7.24285 43.0975 6.02186 44.109 5.14134C45.1205 4.26082 46.522 3.82056 48.3134 3.82056C50.1049 3.82056 51.5064 4.26082 52.5178 5.14134C53.5293 6.02186 54.0351 7.24285 54.0351 8.80431V15.4434C54.0351 15.7722 53.9254 16.0304 53.706 16.2183C53.4867 16.4061 53.1942 16.5001 52.8286 16.5001C52.463 16.5001 52.1644 16.4061 51.9329 16.2183C51.7135 16.0187 51.6038 15.7604 51.6038 15.4434V8.75147C51.6038 7.75355 51.3236 6.99043 50.763 6.46212C50.2024 5.93381 49.3859 5.66965 48.3134 5.66965C47.241 5.66965 46.4245 5.93381 45.8639 6.46212C45.3033 6.99043 45.023 7.75355 45.023 8.75147V15.4434C45.023 15.7604 44.9073 16.0187 44.6757 16.2183C44.4564 16.4061 44.1639 16.5001 43.7983 16.5001Z" fill="#111111"/>
<path d="M38.8681 16.5001C38.5025 16.5001 38.21 16.4061 37.9907 16.2183C37.7713 16.0304 37.6616 15.7722 37.6616 15.4434V4.87718C37.6616 4.54845 37.7713 4.29017 37.9907 4.10232C38.21 3.91448 38.5025 3.82056 38.8681 3.82056C39.2215 3.82056 39.514 3.91448 39.7455 4.10232C39.9771 4.29017 40.0929 4.54845 40.0929 4.87718V15.4434C40.0929 15.7722 39.9771 16.0304 39.7455 16.2183C39.514 16.4061 39.2215 16.5001 38.8681 16.5001Z" fill="#111111"/>
<path d="M23.689 6.60268C23.689 5.78086 23.9327 5.14102 24.4202 4.68314C24.9198 4.22527 25.6084 3.99634 26.4858 3.99634H29.7397C31.5555 3.99634 32.9265 4.33681 33.8527 5.01774C34.7788 5.69868 35.2419 6.71421 35.2419 8.06434C35.2419 9.32055 34.852 10.3009 34.072 11.0053C33.3043 11.7097 32.2684 12.0619 30.9644 12.0619L33.743 14.7211C33.9623 14.9324 34.072 15.1731 34.072 15.4431C34.072 15.7249 33.9441 15.9714 33.6881 16.1827C33.42 16.3823 33.158 16.4821 32.9021 16.4821C32.5487 16.4821 32.2257 16.3295 31.9333 16.0243L27.9848 12.1324H26.1202V15.4431C26.1202 15.7718 26.0044 16.0301 25.7729 16.218C25.5413 16.4058 25.2489 16.4997 24.8954 16.4997C24.5298 16.4997 24.2374 16.4058 24.018 16.218C23.7986 16.0301 23.689 15.7718 23.689 15.4431V6.60268ZM29.6665 10.3185C30.4709 10.3185 31.0985 10.2422 31.5494 10.0895C32.0003 9.93692 32.3171 9.70211 32.4999 9.38513C32.6949 9.0564 32.7924 8.61614 32.7924 8.06434C32.7924 7.26601 32.5365 6.69073 32.0247 6.33852C31.525 5.98632 30.739 5.81021 29.6665 5.81021H26.9062C26.6625 5.81021 26.4675 5.88652 26.3213 6.03915C26.1872 6.19177 26.1202 6.4031 26.1202 6.67312V10.3185H29.6665Z" fill="#111111"/>
<path d="M19.8744 16.5001C19.5088 16.5001 19.2164 16.4061 18.997 16.2183C18.7776 16.0304 18.668 15.7722 18.668 15.4434V4.87718C18.668 4.54845 18.7776 4.29017 18.997 4.10232C19.2164 3.91448 19.5088 3.82056 19.8744 3.82056C20.2279 3.82056 20.5203 3.91448 20.7519 4.10232C20.9834 4.29017 21.0992 4.54845 21.0992 4.87718V15.4434C21.0992 15.7722 20.9834 16.0304 20.7519 16.2183C20.5203 16.4061 20.2279 16.5001 19.8744 16.5001Z" fill="#111111"/>
<path d="M1.20648 16.5001C0.840881 16.5001 0.548401 16.4061 0.32904 16.2183C0.10968 16.0304 0 15.7722 0 15.4434V8.18794C0 6.82607 0.40216 5.7577 1.20648 4.98284C2.0108 4.20799 3.11979 3.82056 4.53344 3.82056C5.2159 3.82056 5.8557 3.98492 6.45285 4.31365C7.06218 4.63064 7.58621 5.08851 8.02493 5.68726C8.45146 5.07677 8.9633 4.61303 9.56045 4.29604C10.1698 3.97905 10.8279 3.82056 11.5347 3.82056C12.9483 3.82056 14.0573 4.20799 14.8617 4.98284C15.666 5.7577 16.0681 6.82607 16.0681 8.18794V15.4434C16.0681 15.7604 15.9524 16.0187 15.7208 16.2183C15.5015 16.4061 15.209 16.5001 14.8434 16.5001C14.4778 16.5001 14.1853 16.4061 13.9659 16.2183C13.7466 16.0304 13.6369 15.7722 13.6369 15.4434V8.18794C13.6369 7.29568 13.4663 6.65583 13.1251 6.2684C12.7838 5.86924 12.2232 5.66965 11.4433 5.66965C10.7365 5.66965 10.1881 5.88685 9.79809 6.32124C9.4203 6.75563 9.23141 7.37786 9.23141 8.18794V15.4434C9.23141 15.7722 9.12173 16.0304 8.90237 16.2183C8.68301 16.4061 8.39053 16.5001 8.02493 16.5001C7.65933 16.5001 7.36685 16.4061 7.14749 16.2183C6.94031 16.0304 6.83673 15.7722 6.83673 15.4434V8.18794C6.83673 7.40134 6.64174 6.78498 6.25177 6.33885C5.86179 5.89272 5.31949 5.66965 4.62484 5.66965C3.8449 5.66965 3.28431 5.86924 2.94308 6.2684C2.60186 6.65583 2.43124 7.29568 2.43124 8.18794V15.4434C2.43124 15.7604 2.31547 16.0187 2.08392 16.2183C1.86456 16.4061 1.57208 16.5001 1.20648 16.5001Z" fill="#111111"/>
<ellipse cx="48.3131" cy="1.67092" rx="1.21544" ry="1.17092" fill="#111111"/>
<rect x="46.5679" y="10.1621" width="3.49038" height="3.36253" fill="#111111"/>
</svg>
