<svg width="66" height="16" viewBox="0 0 66 16" fill="none" xmlns="http://www.w3.org/2000/svg">
<path d="M58.9072 15.8236C57.981 15.8236 57.262 15.5888 56.7502 15.1192C56.2383 14.6496 55.9824 13.9921 55.9824 13.1468V6.10268C55.9824 5.28086 56.2262 4.64102 56.7136 4.18314C57.2133 3.72527 57.9018 3.49634 58.7793 3.49634H64.4644C64.83 3.49634 65.1102 3.57852 65.3052 3.74288C65.5002 3.89551 65.5977 4.11857 65.5977 4.41208C65.5977 4.69385 65.4941 4.91691 65.2869 5.08128C65.092 5.2339 64.8178 5.31021 64.4644 5.31021H59.1997C58.956 5.31021 58.761 5.38652 58.6147 5.53915C58.4807 5.69177 58.4137 5.9031 58.4137 6.17312V8.62097H63.0751C63.4407 8.62097 63.721 8.70315 63.9159 8.86752C64.1109 9.02014 64.2084 9.2432 64.2084 9.53671C64.2084 9.81848 64.1048 10.0415 63.8977 10.2059C63.7027 10.3585 63.4285 10.4348 63.0751 10.4348H58.4137V13.1468C58.4137 13.4169 58.4807 13.6282 58.6147 13.7808C58.761 13.9334 58.956 14.0098 59.1997 14.0098H64.8665C65.2321 14.0098 65.5124 14.0919 65.7074 14.2563C65.9024 14.4089 65.9999 14.632 65.9999 14.9255C65.9999 15.2073 65.8963 15.4303 65.6891 15.5947C65.4941 15.7473 65.2199 15.8236 64.8665 15.8236H58.9072Z" fill="#B090EE"/>
<path d="M43.7983 16.0001C43.4327 16.0001 43.1402 15.9061 42.9208 15.7183C42.7015 15.5304 42.5918 15.2722 42.5918 14.9434V8.30431C42.5918 6.74285 43.0975 5.52186 44.109 4.64134C45.1205 3.76082 46.522 3.32056 48.3134 3.32056C50.1049 3.32056 51.5064 3.76082 52.5178 4.64134C53.5293 5.52186 54.0351 6.74285 54.0351 8.30431V14.9434C54.0351 15.2722 53.9254 15.5304 53.706 15.7183C53.4867 15.9061 53.1942 16.0001 52.8286 16.0001C52.463 16.0001 52.1644 15.9061 51.9329 15.7183C51.7135 15.5187 51.6038 15.2604 51.6038 14.9434V8.25147C51.6038 7.25355 51.3236 6.49043 50.763 5.96212C50.2024 5.43381 49.3859 5.16965 48.3134 5.16965C47.241 5.16965 46.4245 5.43381 45.8639 5.96212C45.3033 6.49043 45.023 7.25355 45.023 8.25147V14.9434C45.023 15.2604 44.9073 15.5187 44.6757 15.7183C44.4564 15.9061 44.1639 16.0001 43.7983 16.0001Z" fill="#B090EE"/>
<path d="M38.8681 16.0001C38.5025 16.0001 38.21 15.9061 37.9907 15.7183C37.7713 15.5304 37.6616 15.2722 37.6616 14.9434V4.37718C37.6616 4.04845 37.7713 3.79017 37.9907 3.60232C38.21 3.41448 38.5025 3.32056 38.8681 3.32056C39.2215 3.32056 39.514 3.41448 39.7455 3.60232C39.9771 3.79017 40.0929 4.04845 40.0929 4.37718V14.9434C40.0929 15.2722 39.9771 15.5304 39.7455 15.7183C39.514 15.9061 39.2215 16.0001 38.8681 16.0001Z" fill="#B090EE"/>
<path d="M23.689 6.10268C23.689 5.28086 23.9327 4.64102 24.4202 4.18314C24.9198 3.72527 25.6084 3.49634 26.4858 3.49634H29.7397C31.5555 3.49634 32.9265 3.83681 33.8527 4.51774C34.7788 5.19868 35.2419 6.21421 35.2419 7.56434C35.2419 8.82055 34.852 9.80087 34.072 10.5053C33.3043 11.2097 32.2684 11.5619 30.9644 11.5619L33.743 14.2211C33.9623 14.4324 34.072 14.6731 34.072 14.9431C34.072 15.2249 33.9441 15.4714 33.6881 15.6827C33.42 15.8823 33.158 15.9821 32.9021 15.9821C32.5487 15.9821 32.2257 15.8295 31.9333 15.5243L27.9848 11.6324H26.1202V14.9431C26.1202 15.2718 26.0044 15.5301 25.7729 15.718C25.5413 15.9058 25.2489 15.9997 24.8954 15.9997C24.5298 15.9997 24.2374 15.9058 24.018 15.718C23.7986 15.5301 23.689 15.2718 23.689 14.9431V6.10268ZM29.6665 9.81848C30.4709 9.81848 31.0985 9.74217 31.5494 9.58954C32.0003 9.43692 32.3171 9.20211 32.4999 8.88513C32.6949 8.5564 32.7924 8.11614 32.7924 7.56434C32.7924 6.76601 32.5365 6.19073 32.0247 5.83852C31.525 5.48632 30.739 5.31021 29.6665 5.31021H26.9062C26.6625 5.31021 26.4675 5.38652 26.3213 5.53915C26.1872 5.69177 26.1202 5.9031 26.1202 6.17312V9.81848H29.6665Z" fill="#B090EE"/>
<path d="M19.8744 16.0001C19.5088 16.0001 19.2164 15.9061 18.997 15.7183C18.7776 15.5304 18.668 15.2722 18.668 14.9434V4.37718C18.668 4.04845 18.7776 3.79017 18.997 3.60232C19.2164 3.41448 19.5088 3.32056 19.8744 3.32056C20.2279 3.32056 20.5203 3.41448 20.7519 3.60232C20.9834 3.79017 21.0992 4.04845 21.0992 4.37718V14.9434C21.0992 15.2722 20.9834 15.5304 20.7519 15.7183C20.5203 15.9061 20.2279 16.0001 19.8744 16.0001Z" fill="#B090EE"/>
<path d="M1.20648 16.0001C0.840881 16.0001 0.548401 15.9061 0.32904 15.7183C0.10968 15.5304 0 15.2722 0 14.9434V7.68794C0 6.32607 0.40216 5.2577 1.20648 4.48284C2.0108 3.70799 3.11979 3.32056 4.53344 3.32056C5.2159 3.32056 5.8557 3.48492 6.45285 3.81365C7.06218 4.13064 7.58621 4.58851 8.02493 5.18726C8.45146 4.57677 8.9633 4.11303 9.56045 3.79604C10.1698 3.47905 10.8279 3.32056 11.5347 3.32056C12.9483 3.32056 14.0573 3.70799 14.8617 4.48284C15.666 5.2577 16.0681 6.32607 16.0681 7.68794V14.9434C16.0681 15.2604 15.9524 15.5187 15.7208 15.7183C15.5015 15.9061 15.209 16.0001 14.8434 16.0001C14.4778 16.0001 14.1853 15.9061 13.9659 15.7183C13.7466 15.5304 13.6369 15.2722 13.6369 14.9434V7.68794C13.6369 6.79568 13.4663 6.15583 13.1251 5.7684C12.7838 5.36924 12.2232 5.16965 11.4433 5.16965C10.7365 5.16965 10.1881 5.38685 9.79809 5.82124C9.4203 6.25563 9.23141 6.87786 9.23141 7.68794V14.9434C9.23141 15.2722 9.12173 15.5304 8.90237 15.7183C8.68301 15.9061 8.39053 16.0001 8.02493 16.0001C7.65933 16.0001 7.36685 15.9061 7.14749 15.7183C6.94031 15.5304 6.83673 15.2722 6.83673 14.9434V7.68794C6.83673 6.90134 6.64174 6.28498 6.25177 5.83885C5.86179 5.39272 5.31949 5.16965 4.62484 5.16965C3.8449 5.16965 3.28431 5.36924 2.94308 5.7684C2.60186 6.15583 2.43124 6.79568 2.43124 7.68794V14.9434C2.43124 15.2604 2.31547 15.5187 2.08392 15.7183C1.86456 15.9061 1.57208 16.0001 1.20648 16.0001Z" fill="#B090EE"/>
<ellipse cx="48.3131" cy="1.17092" rx="1.21544" ry="1.17092" fill="#B090EE"/>
<rect x="46.5679" y="9.66211" width="3.49038" height="3.36253" fill="#B090EE"/>
</svg>
