<svg width="42" height="42" viewBox="0 0 42 42" fill="none" xmlns="http://www.w3.org/2000/svg">
<rect x="0.5" y="0.5" width="41" height="41" rx="20.5" fill="white" stroke="#DADADA"/>
<g clip-path="url(#clip0_733_5482)">
<path d="M19.5006 21.75C19.8227 22.1806 20.2337 22.5369 20.7056 22.7947C21.1774 23.0525 21.6993 23.2058 22.2356 23.2442C22.772 23.2826 23.3103 23.2052 23.8141 23.0173C24.318 22.8294 24.7755 22.5353 25.1556 22.155L27.4056 19.905C28.0887 19.1977 28.4667 18.2505 28.4582 17.2672C28.4496 16.284 28.0552 15.3434 27.36 14.6482C26.6647 13.9529 25.7241 13.5585 24.7409 13.5499C23.7577 13.5414 22.8104 13.9194 22.1031 14.6025L20.8131 15.885M22.5006 20.25C22.1785 19.8194 21.7676 19.4631 21.2957 19.2053C20.8238 18.9475 20.302 18.7941 19.7657 18.7557C19.2293 18.7173 18.6909 18.7947 18.1871 18.9826C17.6833 19.1706 17.2258 19.4647 16.8456 19.845L14.5956 22.095C13.9125 22.8022 13.5346 23.7495 13.5431 24.7327C13.5517 25.716 13.946 26.6565 14.6413 27.3518C15.3366 28.0471 16.2771 28.4415 17.2604 28.45C18.2436 28.4585 19.1909 28.0806 19.8981 27.3975L21.1806 26.115" stroke="#010F2D" stroke-width="2" stroke-linecap="round" stroke-linejoin="round"/>
</g>
<defs>
<clipPath id="clip0_733_5482">
<rect width="18" height="18" fill="white" transform="translate(12 12)"/>
</clipPath>
</defs>
</svg>
