<svg width="24" height="25" viewBox="0 0 24 25" fill="none" xmlns="http://www.w3.org/2000/svg">
<path d="M14.9999 5.50001L18.9999 9.50001M21.1739 7.31201C21.7026 6.78344 21.9997 6.06648 21.9998 5.31887C21.9999 4.57125 21.703 3.85422 21.1744 3.32551C20.6459 2.79681 19.9289 2.49973 19.1813 2.49963C18.4337 2.49954 17.7166 2.79644 17.1879 3.32501L3.84193 16.674C3.60975 16.9055 3.43805 17.1905 3.34193 17.504L2.02093 21.856C1.99509 21.9425 1.99314 22.0344 2.01529 22.1219C2.03743 22.2094 2.08285 22.2892 2.14673 22.353C2.21061 22.4168 2.29055 22.4621 2.37809 22.4841C2.46563 22.5061 2.55749 22.504 2.64393 22.478L6.99693 21.158C7.3101 21.0628 7.59511 20.8921 7.82693 20.661L21.1739 7.31201Z" stroke="#111111" stroke-width="2" stroke-linecap="round" stroke-linejoin="round"/>
</svg>
