<svg width="24" height="25" viewBox="0 0 24 25" fill="none" xmlns="http://www.w3.org/2000/svg">
<path d="M11.5248 2.79502C11.5687 2.70648 11.6364 2.63195 11.7203 2.57984C11.8042 2.52773 11.9011 2.50012 11.9998 2.50012C12.0986 2.50012 12.1955 2.52773 12.2794 2.57984C12.3633 2.63195 12.431 2.70648 12.4748 2.79502L14.7848 7.47402C14.937 7.78198 15.1617 8.04842 15.4395 8.25047C15.7173 8.45251 16.04 8.58413 16.3798 8.63402L21.5458 9.39002C21.6437 9.4042 21.7357 9.44549 21.8113 9.50921C21.887 9.57294 21.9433 9.65656 21.9739 9.75062C22.0045 9.84468 22.0081 9.94542 21.9844 10.0415C21.9607 10.1375 21.9107 10.225 21.8398 10.294L18.1038 13.932C17.8575 14.1721 17.6731 14.4685 17.5667 14.7956C17.4602 15.1228 17.4349 15.4709 17.4928 15.81L18.3748 20.95C18.3921 21.0479 18.3816 21.1486 18.3443 21.2407C18.3071 21.3328 18.2448 21.4126 18.1644 21.471C18.084 21.5294 17.9888 21.564 17.8897 21.5709C17.7906 21.5778 17.6915 21.5567 17.6038 21.51L12.9858 19.082C12.6816 18.9222 12.343 18.8388 11.9993 18.8388C11.6557 18.8388 11.3171 18.9222 11.0128 19.082L6.39585 21.51C6.30818 21.5564 6.20924 21.5773 6.1103 21.5703C6.01135 21.5632 5.91636 21.5286 5.83614 21.4702C5.75592 21.4119 5.69368 21.3322 5.6565 21.2402C5.61933 21.1483 5.6087 21.0477 5.62585 20.95L6.50685 15.811C6.56504 15.4717 6.53983 15.1234 6.43338 14.7961C6.32694 14.4687 6.14246 14.1722 5.89585 13.932L2.15985 10.295C2.08844 10.226 2.03784 10.1384 2.01381 10.0421C1.98978 9.94577 1.99328 9.84463 2.02393 9.75021C2.05457 9.65578 2.11111 9.57186 2.18712 9.508C2.26313 9.44414 2.35555 9.40291 2.45385 9.38902L7.61885 8.63402C7.9591 8.58451 8.28224 8.45307 8.56043 8.251C8.83863 8.04893 9.06355 7.78229 9.21585 7.47402L11.5248 2.79502Z" fill="#111111" stroke="#111111" stroke-width="2" stroke-linecap="round" stroke-linejoin="round"/>
</svg>
