<svg width="14" height="15" viewBox="0 0 14 15" fill="none" xmlns="http://www.w3.org/2000/svg">
<path d="M5.83345 8.08335C6.08396 8.41826 6.40357 8.69538 6.7706 8.8959C7.13763 9.09643 7.5435 9.21567 7.96066 9.24555C8.37783 9.27543 8.79654 9.21524 9.1884 9.06906C9.58026 8.92289 9.9361 8.69415 10.2318 8.39835L11.9818 6.64835C12.5131 6.09826 12.8071 5.36151 12.8004 4.59677C12.7938 3.83203 12.487 3.10049 11.9463 2.55972C11.4055 2.01894 10.6739 1.7122 9.9092 1.70555C9.14446 1.69891 8.40771 1.99289 7.85762 2.52419L6.85428 3.52169M8.16678 6.91669C7.91627 6.58178 7.59666 6.30466 7.22963 6.10414C6.8626 5.90361 6.45674 5.78437 6.03957 5.75449C5.6224 5.72462 5.20369 5.78481 4.81183 5.93098C4.41997 6.07716 4.06413 6.3059 3.76845 6.60169L2.01845 8.35169C1.48716 8.90178 1.19317 9.63853 1.19982 10.4033C1.20646 11.168 1.51321 11.8996 2.05398 12.4403C2.59475 12.9811 3.32629 13.2878 4.09103 13.2945C4.85577 13.3011 5.59253 13.0071 6.14262 12.4759L7.14012 11.4784" stroke="#7C9DFB" stroke-linecap="round" stroke-linejoin="round"/>
</svg>
