<svg width="24" height="25" viewBox="0 0 24 25" fill="none" xmlns="http://www.w3.org/2000/svg">
<path d="M4.02148 7.74609H9.02148C9.2867 7.74609 9.54105 7.85145 9.72859 8.03899C9.91613 8.22652 10.0215 8.48088 10.0215 8.74609C10.0215 9.01131 9.91613 9.26566 9.72859 9.4532C9.54105 9.64074 9.2867 9.74609 9.02148 9.74609H4.02148C3.75627 9.74609 3.50191 9.64074 3.31438 9.4532C3.12684 9.26566 3.02148 9.01131 3.02148 8.74609C3.02148 8.48088 3.12684 8.22652 3.31438 8.03899C3.50191 7.85145 3.75627 7.74609 4.02148 7.74609ZM11.0215 15.7461H16.0215C16.2867 15.7461 16.5411 15.8515 16.7286 16.039C16.9161 16.2265 17.0215 16.4809 17.0215 16.7461C17.0215 17.0113 16.9161 17.2657 16.7286 17.4532C16.5411 17.6407 16.2867 17.7461 16.0215 17.7461H11.0215C10.7563 17.7461 10.5019 17.6407 10.3144 17.4532C10.1268 17.2657 10.0215 17.0113 10.0215 16.7461C10.0215 16.4809 10.1268 16.2265 10.3144 16.039C10.5019 15.8515 10.7563 15.7461 11.0215 15.7461ZM4.02148 11.7461H16.0215C16.2867 11.7461 16.5411 11.8515 16.7286 12.039C16.9161 12.2265 17.0215 12.4809 17.0215 12.7461C17.0215 13.0113 16.9161 13.2657 16.7286 13.4532C16.5411 13.6407 16.2867 13.7461 16.0215 13.7461H4.02148C3.75627 13.7461 3.50191 13.6407 3.31438 13.4532C3.12684 13.2657 3.02148 13.0113 3.02148 12.7461C3.02148 12.4809 3.12684 12.2265 3.31438 12.039C3.50191 11.8515 3.75627 11.7461 4.02148 11.7461Z" fill="#111111"/>
<path d="M12.7514 7.80857C12.7514 8.22042 12.5083 8.74534 12.5083 8.74534C12.5083 8.74534 12.2651 8.22042 12.2651 7.80857C12.2651 7.39672 12.374 7.25391 12.5083 7.25391C12.6426 7.25391 12.7514 7.39672 12.7514 7.80857Z" fill="#111111"/>
<path d="M13.3447 8.2517C13.0535 8.54292 12.5104 8.74216 12.5104 8.74216C12.5104 8.74216 12.7096 8.19905 13.0009 7.90783C13.2921 7.61661 13.47 7.5926 13.565 7.68756C13.66 7.78252 13.6359 7.96048 13.3447 8.2517Z" fill="#111111"/>
<path d="M13.4507 8.98435C13.0389 8.98435 12.5139 8.7412 12.5139 8.7412C12.5139 8.7412 13.0389 8.49805 13.4507 8.49805C13.8626 8.49805 14.0054 8.60691 14.0054 8.7412C14.0054 8.87549 13.8626 8.98435 13.4507 8.98435Z" fill="#111111"/>
<path d="M13.0081 9.57666C12.7168 9.28544 12.5176 8.74233 12.5176 8.74233C12.5176 8.74233 13.0607 8.94157 13.3519 9.23279C13.6432 9.52401 13.6672 9.70198 13.5722 9.79693C13.4772 9.89189 13.2993 9.86788 13.0081 9.57666Z" fill="#111111"/>
<path d="M12.2754 9.68362C12.2754 9.27177 12.5186 8.74685 12.5186 8.74685C12.5186 8.74685 12.7617 9.27177 12.7617 9.68362C12.7617 10.0955 12.6529 10.2383 12.5186 10.2383C12.3843 10.2383 12.2754 10.0955 12.2754 9.68362Z" fill="#111111"/>
<path d="M11.6821 9.24049C11.9733 8.94927 12.5165 8.75003 12.5165 8.75003C12.5165 8.75003 12.3172 9.29314 12.026 9.58436C11.7348 9.87558 11.5568 9.89958 11.4619 9.80463C11.3669 9.70967 11.3909 9.53171 11.6821 9.24049Z" fill="#111111"/>
<path d="M11.5761 8.50784C11.988 8.50784 12.5129 8.75099 12.5129 8.75099C12.5129 8.75099 11.988 8.99414 11.5761 8.99414C11.1643 8.99414 11.0215 8.88528 11.0215 8.75099C11.0215 8.6167 11.1643 8.50784 11.5761 8.50784Z" fill="#111111"/>
<path d="M12.0193 7.91552C12.3105 8.20674 12.5097 8.74985 12.5097 8.74985C12.5097 8.74985 11.9666 8.55061 11.6754 8.25939C11.3842 7.96817 11.3602 7.79021 11.4551 7.69525C11.5501 7.6003 11.7281 7.6243 12.0193 7.91552Z" fill="#111111"/>
<path d="M19.7246 11.8086C19.7246 12.2204 19.4814 12.7453 19.4814 12.7453C19.4814 12.7453 19.2383 12.2204 19.2383 11.8086C19.2383 11.3967 19.3471 11.2539 19.4814 11.2539C19.6157 11.2539 19.7246 11.3967 19.7246 11.8086Z" fill="#111111"/>
<path d="M20.3179 12.2517C20.0267 12.5429 19.4835 12.7422 19.4835 12.7422C19.4835 12.7422 19.6828 12.1991 19.974 11.9078C20.2652 11.6166 20.4432 11.5926 20.5381 11.6876C20.6331 11.7825 20.6091 11.9605 20.3179 12.2517Z" fill="#111111"/>
<path d="M20.4239 12.9844C20.012 12.9844 19.4871 12.7412 19.4871 12.7412C19.4871 12.7412 20.012 12.498 20.4239 12.498C20.8357 12.498 20.9785 12.6069 20.9785 12.7412C20.9785 12.8755 20.8357 12.9844 20.4239 12.9844Z" fill="#111111"/>
<path d="M19.9807 13.5767C19.6895 13.2854 19.4903 12.7423 19.4903 12.7423C19.4903 12.7423 20.0334 12.9416 20.3246 13.2328C20.6158 13.524 20.6398 13.702 20.5449 13.7969C20.4499 13.8919 20.2719 13.8679 19.9807 13.5767Z" fill="#111111"/>
<path d="M19.249 13.6836C19.249 13.2718 19.4922 12.7469 19.4922 12.7469C19.4922 12.7469 19.7354 13.2718 19.7354 13.6836C19.7354 14.0955 19.6265 14.2383 19.4922 14.2383C19.3579 14.2383 19.249 14.0955 19.249 13.6836Z" fill="#111111"/>
<path d="M18.6558 13.2405C18.947 12.9493 19.4901 12.75 19.4901 12.75C19.4901 12.75 19.2908 13.2931 18.9996 13.5844C18.7084 13.8756 18.5304 13.8996 18.4355 13.8046C18.3405 13.7097 18.3645 13.5317 18.6558 13.2405Z" fill="#111111"/>
<path d="M18.5493 12.5078C18.9611 12.5078 19.4861 12.751 19.4861 12.751C19.4861 12.751 18.9611 12.9941 18.5493 12.9941C18.1374 12.9941 17.9946 12.8853 17.9946 12.751C17.9946 12.6167 18.1374 12.5078 18.5493 12.5078Z" fill="#111111"/>
<path d="M18.9924 11.9155C19.2836 12.2067 19.4829 12.7499 19.4829 12.7499C19.4829 12.7499 18.9398 12.5506 18.6486 12.2594C18.3573 11.9682 18.3333 11.7902 18.4283 11.6953C18.5232 11.6003 18.7012 11.6243 18.9924 11.9155Z" fill="#111111"/>
</svg>
