<svg width="24" height="25" viewBox="0 0 24 25" fill="none" xmlns="http://www.w3.org/2000/svg">
<path d="M14 4.5H21M14 9.5H21M14 15.5H21M14 20.5H21M4 3.5H9C9.55228 3.5 10 3.94772 10 4.5V9.5C10 10.0523 9.55228 10.5 9 10.5H4C3.44772 10.5 3 10.0523 3 9.5V4.5C3 3.94772 3.44772 3.5 4 3.5ZM4 14.5H9C9.55228 14.5 10 14.9477 10 15.5V20.5C10 21.0523 9.55228 21.5 9 21.5H4C3.44772 21.5 3 21.0523 3 20.5V15.5C3 14.9477 3.44772 14.5 4 14.5Z" stroke="#111111" stroke-width="2" stroke-linecap="round" stroke-linejoin="round"/>
</svg>
