<svg width="22" height="23" viewBox="0 0 22 23" fill="none" xmlns="http://www.w3.org/2000/svg">
<path d="M9.16685 12.4167C9.56051 12.9429 10.0628 13.3784 10.6395 13.6935C11.2163 14.0086 11.8541 14.196 12.5096 14.243C13.1652 14.2899 13.8231 14.1953 14.4389 13.9656C15.0547 13.7359 15.6139 13.3765 16.0785 12.9117L18.8285 10.1617C19.6634 9.29723 20.1254 8.13947 20.1149 6.93773C20.1045 5.736 19.6225 4.58644 18.7727 3.73665C17.9229 2.88687 16.7733 2.40484 15.5716 2.3944C14.3699 2.38396 13.2121 2.84593 12.3477 3.68082L10.771 5.24832M12.8335 10.5833C12.4399 10.057 11.9376 9.62157 11.3608 9.30646C10.7841 8.99135 10.1463 8.80397 9.49075 8.75702C8.83521 8.71007 8.17723 8.80465 7.56145 9.03436C6.94567 9.26406 6.3865 9.62351 5.92185 10.0883L3.17185 12.8383C2.33696 13.7027 1.87498 14.8605 1.88543 16.0622C1.89587 17.264 2.37789 18.4135 3.22768 19.2633C4.07747 20.1131 5.22703 20.5951 6.42876 20.6056C7.6305 20.616 8.78826 20.154 9.65268 19.3192L11.2202 17.7517" stroke="#111111" stroke-width="2" stroke-linecap="round" stroke-linejoin="round"/>
</svg>
