<svg width="20" height="20" viewBox="0 0 20 20" fill="none" xmlns="http://www.w3.org/2000/svg">
<path d="M13.751 3C16.042 3 17.8348 4.7849 17.835 7.08301C17.835 8.48946 17.2046 9.80915 15.9941 11.29C14.7782 12.7776 13.0295 14.3667 10.874 16.3213L10.873 16.3223L10.001 17.1152L9.12988 16.3223L9.12891 16.3213L7.58984 14.9199C6.13157 13.5786 4.91974 12.4057 4.00781 11.29C2.79741 9.80917 2.16797 8.48944 2.16797 7.08301C2.16814 4.78501 3.96012 3.00017 6.25098 3C7.54977 3 8.80521 3.60692 9.62207 4.55859L10.001 5.00098L10.3809 4.55859C11.1976 3.60709 12.4524 3.0001 13.751 3Z" stroke="#C2C2C2"/>
</svg>
