<svg width="24" height="25" viewBox="0 0 24 25" fill="none" xmlns="http://www.w3.org/2000/svg">
<path d="M2.0498 2.54999H4.0498L6.7098 14.97C6.80738 15.4248 7.06048 15.8315 7.42552 16.1198C7.79056 16.4082 8.24471 16.5603 8.7098 16.55H18.4898C18.945 16.5493 19.3863 16.3933 19.7408 16.1078C20.0954 15.8224 20.3419 15.4245 20.4398 14.98L22.0898 7.54999H5.1198M8.9998 21.5C8.9998 22.0523 8.55209 22.5 7.9998 22.5C7.44752 22.5 6.9998 22.0523 6.9998 21.5C6.9998 20.9477 7.44752 20.5 7.9998 20.5C8.55209 20.5 8.9998 20.9477 8.9998 21.5ZM19.9998 21.5C19.9998 22.0523 19.5521 22.5 18.9998 22.5C18.4475 22.5 17.9998 22.0523 17.9998 21.5C17.9998 20.9477 18.4475 20.5 18.9998 20.5C19.5521 20.5 19.9998 20.9477 19.9998 21.5Z" stroke="#111111" stroke-width="2" stroke-linecap="round" stroke-linejoin="round"/>
</svg>
