<svg width="22" height="22" viewBox="0 0 22 22" fill="none" xmlns="http://www.w3.org/2000/svg">
<path fill-rule="evenodd" clip-rule="evenodd" d="M14.9645 13.6573L19.8961 18.589C20.0695 18.7625 20.1668 18.9977 20.1667 19.2429C20.1666 19.4881 20.0691 19.7233 19.8957 19.8966C19.7222 20.07 19.487 20.1673 19.2418 20.1672C18.9965 20.1671 18.7614 20.0696 18.588 19.8962L13.6564 14.9645C12.1821 16.1064 10.3282 16.6437 8.47182 16.4672C6.61543 16.2908 4.896 15.4137 3.66331 14.0145C2.43062 12.6153 1.77728 10.799 1.83618 8.93518C1.89509 7.07135 2.66182 5.29997 3.98041 3.98138C5.29899 2.6628 7.07037 1.89607 8.9342 1.83716C10.798 1.77825 12.6143 2.4316 14.0135 3.66429C15.4127 4.89697 16.2898 6.61641 16.4663 8.47279C16.6428 10.3292 16.1054 12.1831 14.9635 13.6573M9.16653 14.6666C10.6252 14.6666 12.0242 14.0871 13.0556 13.0557C14.0871 12.0242 14.6665 10.6253 14.6665 9.16659C14.6665 7.7079 14.0871 6.30896 13.0556 5.27751C12.0242 4.24606 10.6252 3.66659 9.16653 3.66659C7.70784 3.66659 6.3089 4.24606 5.27745 5.27751C4.246 6.30896 3.66654 7.7079 3.66654 9.16659C3.66654 10.6253 4.246 12.0242 5.27745 13.0557C6.3089 14.0871 7.70784 14.6666 9.16653 14.6666Z" fill="#010F2D"/>
</svg>
