<svg width="18" height="19" viewBox="0 0 18 19" fill="none" xmlns="http://www.w3.org/2000/svg">
<path d="M7.50015 10.25C7.82224 10.6806 8.23317 11.0369 8.70506 11.2947C9.17696 11.5525 9.69878 11.7058 10.2351 11.7442C10.7715 11.7826 11.3098 11.7053 11.8137 11.5173C12.3175 11.3294 12.775 11.0353 13.1552 10.655L15.4052 8.40497C16.0882 7.69772 16.4662 6.75046 16.4577 5.76722C16.4491 4.78398 16.0548 3.84344 15.3595 3.14815C14.6642 2.45287 13.7236 2.05849 12.7404 2.04995C11.7572 2.0414 10.8099 2.41938 10.1027 3.10247L8.81265 4.38497M10.5002 8.74997C10.1781 8.31938 9.76713 7.96309 9.29524 7.70527C8.82334 7.44745 8.30152 7.29414 7.76516 7.25572C7.2288 7.21731 6.69046 7.2947 6.18664 7.48264C5.68282 7.67058 5.22531 7.96467 4.84515 8.34497L2.59515 10.595C1.91206 11.3022 1.53408 12.2495 1.54262 13.2327C1.55117 14.216 1.94555 15.1565 2.64083 15.8518C3.33611 16.5471 4.27666 16.9415 5.2599 16.95C6.24313 16.9585 7.19039 16.5806 7.89765 15.8975L9.18015 14.615" stroke="#111111" stroke-width="2" stroke-linecap="round" stroke-linejoin="round"/>
</svg>
