<svg width="484" height="40" viewBox="0 0 484 40" fill="none" xmlns="http://www.w3.org/2000/svg">
<path d="M298.482 19.9981C298.482 16.3161 295.48 13.3313 291.777 13.3313C288.074 13.3313 285.072 16.3161 285.072 19.9981C285.072 23.68 288.074 26.6649 291.777 26.6649C295.48 26.6649 298.482 23.68 298.482 19.9981ZM302.952 19.9981C302.952 26.1347 297.948 31.1094 291.777 31.1094C285.605 31.1094 280.602 26.1347 280.602 19.9981C280.602 13.8614 285.605 8.88672 291.777 8.88672C297.948 8.88672 302.952 13.8614 302.952 19.9981Z" fill="white"/>
<path d="M298.492 28.8867V19.9977C298.492 18.7703 299.493 17.7754 300.727 17.7754C301.961 17.7754 302.961 18.7703 302.961 19.9977V28.8867C302.961 30.1141 301.961 31.109 300.727 31.109C299.493 31.109 298.492 30.1141 298.492 28.8867Z" fill="white"/>
<path d="M403.529 19.9981C403.529 16.3161 400.527 13.3313 396.823 13.3313C393.12 13.3313 390.118 16.3161 390.118 19.9981C390.118 23.68 393.12 26.6649 396.823 26.6649C400.527 26.6649 403.529 23.68 403.529 19.9981ZM407.999 19.9981C407.999 26.1347 402.995 31.1094 396.823 31.1094C390.652 31.1094 385.648 26.1347 385.648 19.9981C385.648 13.8614 390.652 8.88672 396.823 8.88672C402.995 8.88672 407.999 13.8614 407.999 19.9981Z" fill="white"/>
<path d="M403.531 28.8867V19.9977C403.531 18.7703 404.532 17.7754 405.766 17.7754C407 17.7754 408 18.7703 408 19.9977V28.8867C408 30.1141 407 31.109 405.766 31.109C404.532 31.109 403.531 30.1141 403.531 28.8867Z" fill="white"/>
<path d="M340.95 19.9981C340.95 16.3161 337.948 13.3313 334.245 13.3313C330.542 13.3313 327.54 16.3161 327.54 19.9981C327.54 23.68 330.542 26.6649 334.245 26.6649C337.948 26.6649 340.95 23.68 340.95 19.9981ZM345.42 19.9981C345.42 26.1347 340.417 31.1094 334.245 31.1094C328.074 31.1094 323.07 26.1347 323.07 19.9981C323.07 13.8614 328.074 8.88672 334.245 8.88672C340.417 8.88672 345.42 13.8614 345.42 19.9981Z" fill="white"/>
<path d="M349.883 28.8871V11.109C349.883 9.88166 350.883 8.88672 352.117 8.88672C353.351 8.88672 354.352 9.88166 354.352 11.109V28.8871C354.352 30.1144 353.351 31.1094 352.117 31.1094C350.883 31.1094 349.883 30.1144 349.883 28.8871Z" fill="white"/>
<path fill-rule="evenodd" clip-rule="evenodd" d="M358.823 8.88672C363.76 8.88672 367.763 12.8665 367.763 17.7758H363.293C363.293 15.3211 361.292 13.3313 358.823 13.3313C356.354 13.3313 354.353 15.3211 354.353 17.7758H349.883C349.883 12.8665 353.885 8.88672 358.823 8.88672Z" fill="white"/>
<path d="M363.297 28.8873V17.776C363.297 16.5487 364.297 15.5537 365.531 15.5537C366.766 15.5537 367.766 16.5487 367.766 17.776V28.8873C367.766 30.1146 366.766 31.1096 365.531 31.1096C364.297 31.1096 363.297 30.1146 363.297 28.8873Z" fill="white"/>
<path fill-rule="evenodd" clip-rule="evenodd" d="M372.237 8.88672C377.174 8.88672 381.177 12.8665 381.177 17.7758H376.707C376.707 15.3211 374.706 13.3313 372.237 13.3313C369.768 13.3313 367.767 15.3211 367.767 17.7758H363.297C363.297 12.8665 367.299 8.88672 372.237 8.88672Z" fill="white"/>
<path d="M376.703 28.8873V17.776C376.703 16.5487 377.704 15.5537 378.938 15.5537C380.172 15.5537 381.172 16.5487 381.172 17.776V28.8873C381.172 30.1146 380.172 31.1096 378.938 31.1096C377.704 31.1096 376.703 30.1146 376.703 28.8873Z" fill="white"/>
<path d="M307.422 28.8871V11.109C307.422 9.88166 308.422 8.88672 309.656 8.88672C310.891 8.88672 311.891 9.88166 311.891 11.109V28.8871C311.891 30.1144 310.891 31.1094 309.656 31.1094C308.422 31.1094 307.422 30.1144 307.422 28.8871Z" fill="white"/>
<path fill-rule="evenodd" clip-rule="evenodd" d="M315.928 8.89648L316.817 8.89753C317.703 8.9417 318.555 9.11404 319.354 9.39629L318.837 12.0773L317.881 13.5938C317.406 13.4236 316.895 13.3307 316.362 13.3307C313.893 13.3307 311.892 15.3206 311.892 17.7753H307.422C307.422 13.0106 311.192 9.12146 315.928 8.89648Z" fill="white"/>
<path d="M318.594 13.7121C319.828 13.7121 320.828 12.7172 320.828 11.4898C320.828 10.2625 319.828 9.26758 318.594 9.26758C317.36 9.26758 316.359 10.2625 316.359 11.4898C316.359 12.7172 317.36 13.7121 318.594 13.7121Z" fill="white"/>
<path d="M448.232 19.9981C448.232 16.3161 445.23 13.3313 441.527 13.3313C437.824 13.3313 434.822 16.3161 434.822 19.9981C434.822 23.68 437.824 26.6649 441.527 26.6649C445.23 26.6649 448.232 23.68 448.232 19.9981ZM452.702 19.9981C452.702 26.1347 447.698 31.1094 441.527 31.1094C435.355 31.1094 430.352 26.1347 430.352 19.9981C430.352 13.8614 435.355 8.88672 441.527 8.88672C447.698 8.88672 452.702 13.8614 452.702 19.9981Z" fill="white"/>
<path d="M466.117 28.8871V11.109C466.117 9.88166 467.118 8.88672 468.352 8.88672C469.586 8.88672 470.586 9.88166 470.586 11.109V28.8871C470.586 30.1144 469.586 31.1094 468.352 31.1094C467.118 31.1094 466.117 30.1144 466.117 28.8871Z" fill="white"/>
<path fill-rule="evenodd" clip-rule="evenodd" d="M475.057 8.88672C479.995 8.88672 483.997 12.8665 483.997 17.7758H479.527C479.527 15.3211 477.526 13.3313 475.057 13.3313C472.589 13.3313 470.587 15.3211 470.587 17.7758H466.117C466.117 12.8665 470.12 8.88672 475.057 8.88672Z" fill="white"/>
<path d="M479.531 28.8873V17.776C479.531 16.5487 480.532 15.5537 481.766 15.5537C483 15.5537 484 16.5487 484 17.776V28.8873C484 30.1146 483 31.1096 481.766 31.1096C480.532 31.1096 479.531 30.1146 479.531 28.8873Z" fill="white"/>
<path d="M423.649 5.55586C424.883 5.55586 425.883 4.56092 425.883 3.3336C425.883 2.10627 424.883 1.11133 423.649 1.11133C422.415 1.11133 421.414 2.10627 421.414 3.3336C421.414 4.56092 422.415 5.55586 423.649 5.55586Z" fill="white"/>
<path d="M421.414 28.8871V11.109C421.414 9.88166 422.415 8.88672 423.649 8.88672C424.883 8.88672 425.883 9.88166 425.883 11.109V28.8871C425.883 30.1144 424.883 31.1094 423.649 31.1094C422.415 31.1094 421.414 30.1144 421.414 28.8871Z" fill="white"/>
<path fill-rule="evenodd" clip-rule="evenodd" d="M419.182 35.5566C422.885 35.5566 425.887 32.5718 425.887 28.8898H421.417C421.417 30.1172 420.416 31.1121 419.182 31.1121C417.947 31.1121 416.947 30.1172 416.947 28.8898H412.477C412.477 32.5718 415.479 35.5566 419.182 35.5566Z" fill="white"/>
<path d="M414.711 31.1096C415.945 31.1096 416.946 30.1146 416.946 28.8873C416.946 27.66 415.945 26.665 414.711 26.665C413.477 26.665 412.477 27.66 412.477 28.8873C412.477 30.1146 413.477 31.1096 414.711 31.1096Z" fill="white"/>
<path d="M459.406 5.55586C460.641 5.55586 461.641 4.56092 461.641 3.3336C461.641 2.10627 460.641 1.11133 459.406 1.11133C458.172 1.11133 457.172 2.10627 457.172 3.3336C457.172 4.56092 458.172 5.55586 459.406 5.55586Z" fill="white"/>
<path d="M457.172 28.8871V11.109C457.172 9.88166 458.172 8.88672 459.406 8.88672C460.641 8.88672 461.641 9.88166 461.641 11.109V28.8871C461.641 30.1144 460.641 31.1094 459.406 31.1094C458.172 31.1094 457.172 30.1144 457.172 28.8871Z" fill="white"/>
<path d="M267.195 13.3885C267.195 12.5549 266.747 11.7846 266.021 11.3678L254.506 4.75716C253.78 4.34034 252.885 4.34034 252.159 4.75716L240.643 11.3678C239.917 11.7846 239.47 12.5549 239.47 13.3885V26.6097C239.47 27.4433 239.917 28.2137 240.643 28.6305L252.159 35.2411C252.885 35.6579 253.78 35.6579 254.506 35.2411L266.021 28.6305C266.747 28.2137 267.195 27.4433 267.195 26.6097V13.3885ZM271.665 26.6097C271.665 29.0312 270.365 31.2688 268.256 32.4796L256.741 39.0902C254.632 40.3009 252.033 40.3009 249.924 39.0902L238.408 32.4796C236.299 31.2688 235 29.0312 235 26.6097V13.3885C235 10.967 236.299 8.72942 238.408 7.51866L249.924 0.908066C252.033 -0.302688 254.632 -0.302689 256.741 0.908066L268.256 7.51866C270.365 8.72942 271.665 10.967 271.665 13.3885V26.6097Z" fill="white"/>
<path d="M260.044 20C260.044 16.318 257.042 13.3332 253.339 13.3332C249.636 13.3332 246.634 16.318 246.634 20C246.634 23.682 249.636 26.6668 253.339 26.6668C257.042 26.6668 260.044 23.682 260.044 20ZM264.514 20C264.514 26.1366 259.511 31.1113 253.339 31.1113C247.167 31.1113 242.164 26.1366 242.164 20C242.164 13.8634 247.167 8.88867 253.339 8.88867C259.511 8.88867 264.514 13.8634 264.514 20Z" fill="white"/>
<path d="M269.429 13.833C270.644 13.8328 271.633 14.7967 271.664 15.9975L271.664 16.0548L271.669 37.7775L271.668 37.8348C271.638 39.0357 270.649 40 269.435 40.0002C268.22 40.0004 267.231 39.0365 267.2 37.8357L267.2 37.7784L267.195 16.0557L267.196 15.9984C267.226 14.7975 268.215 13.8332 269.429 13.833Z" fill="white"/>
<path d="M147.265 39.5585C144.95 39.5585 143.152 38.9715 141.873 37.7975C140.593 36.6235 139.953 34.9799 139.953 32.8667V15.2564C139.953 13.2019 140.562 11.6023 141.781 10.4576C143.03 9.31296 144.752 8.74063 146.945 8.74063H161.158C162.072 8.74063 162.772 8.94608 163.26 9.35699C163.747 9.73854 163.991 10.2962 163.991 11.03C163.991 11.7344 163.732 12.292 163.214 12.7029C162.727 13.0845 162.041 13.2753 161.158 13.2753H147.996C147.387 13.2753 146.899 13.466 146.534 13.8476C146.199 14.2292 146.031 14.7575 146.031 15.4325V21.5521H157.685C158.598 21.5521 159.299 21.7575 159.787 22.1684C160.274 22.55 160.518 23.1077 160.518 23.8414C160.518 24.5458 160.259 25.1035 159.741 25.5144C159.254 25.8959 158.568 26.0867 157.685 26.0867H146.031V32.8667C146.031 33.5417 146.199 34.07 146.534 34.4516C146.899 34.8331 147.387 35.0239 147.996 35.0239H162.163C163.077 35.0239 163.778 35.2294 164.265 35.6403C164.753 36.0218 164.996 36.5795 164.996 37.3132C164.996 38.0177 164.737 38.5753 164.22 38.9862C163.732 39.3678 163.047 39.5585 162.163 39.5585H147.265Z" fill="white"/>
<path d="M109.493 39.9996C108.579 39.9996 107.848 39.7648 107.299 39.2952C106.751 38.8256 106.477 38.1799 106.477 37.3581V20.7604C106.477 16.8568 107.741 13.8044 110.27 11.6031C112.798 9.40182 116.302 8.30118 120.78 8.30118C125.259 8.30118 128.763 9.40182 131.291 11.6031C133.82 13.8044 135.084 16.8568 135.084 20.7604V37.3581C135.084 38.1799 134.81 38.8256 134.262 39.2952C133.713 39.7648 132.982 39.9996 132.068 39.9996C131.154 39.9996 130.408 39.7648 129.829 39.2952C129.281 38.7962 129.006 38.1505 129.006 37.3581V20.6283C129.006 18.1336 128.306 16.2258 126.904 14.905C125.503 13.5843 123.462 12.9239 120.78 12.9239C118.099 12.9239 116.058 13.5843 114.657 14.905C113.255 16.2258 112.555 18.1336 112.555 20.6283V37.3581C112.555 38.1505 112.265 38.7962 111.686 39.2952C111.138 39.7648 110.407 39.9996 109.493 39.9996Z" fill="white"/>
<path d="M97.1724 39.9996C96.2584 39.9996 95.5272 39.7648 94.9788 39.2952C94.4304 38.8256 94.1562 38.1799 94.1562 37.3581V10.9427C94.1562 10.1209 94.4304 9.47519 94.9788 9.00559C95.5272 8.53598 96.2584 8.30118 97.1724 8.30118C98.0559 8.30118 98.7871 8.53598 99.366 9.00559C99.9448 9.47519 100.234 10.1209 100.234 10.9427V37.3581C100.234 38.1799 99.9448 38.8256 99.366 39.2952C98.7871 39.7648 98.0559 39.9996 97.1724 39.9996Z" fill="white"/>
<path d="M59.2188 15.2564C59.2188 13.2019 59.8281 11.6023 61.0467 10.4576C62.2958 9.31296 64.0172 8.74063 66.2108 8.74063H74.3453C78.8847 8.74063 82.3122 9.59179 84.6276 11.2941C86.9431 12.9964 88.1008 15.5352 88.1008 18.9105C88.1008 22.051 87.1259 24.5018 85.176 26.2628C83.2566 28.0238 80.667 28.9044 77.4071 28.9044L84.3534 35.5522C84.9018 36.0805 85.176 36.6822 85.176 37.3573C85.176 38.0617 84.8561 38.678 84.2163 39.2063C83.5461 39.7053 82.8911 39.9548 82.2513 39.9548C81.3677 39.9548 80.5604 39.5732 79.8292 38.8101L69.9581 29.0805H65.2968V37.3573C65.2968 38.1791 65.0073 38.8248 64.4285 39.2944C63.8496 39.764 63.1184 39.9988 62.2349 39.9988C61.3209 39.9988 60.5897 39.764 60.0413 39.2944C59.4929 38.8248 59.2188 38.1791 59.2188 37.3573V15.2564ZM74.1625 24.5458C76.1732 24.5458 77.7422 24.355 78.8695 23.9735C79.9968 23.5919 80.7889 23.0049 81.2459 22.2125C81.7333 21.3907 81.9771 20.29 81.9771 18.9105C81.9771 16.9147 81.3373 15.4765 80.0577 14.596C78.8086 13.7155 76.8435 13.2753 74.1625 13.2753H67.2618C66.6525 13.2753 66.1651 13.466 65.7995 13.8476C65.4643 14.2292 65.2968 14.7575 65.2968 15.4325V24.5458H74.1625Z" fill="white"/>
<path d="M49.688 39.9996C48.774 39.9996 48.0429 39.7648 47.4945 39.2952C46.9461 38.8256 46.6719 38.1799 46.6719 37.3581V10.9427C46.6719 10.1209 46.9461 9.47519 47.4945 9.00559C48.0429 8.53598 48.774 8.30118 49.688 8.30118C50.5716 8.30118 51.3028 8.53598 51.8816 9.00559C52.4605 9.47519 52.7499 10.1209 52.7499 10.9427V37.3581C52.7499 38.1799 52.4605 38.8256 51.8816 39.2952C51.3028 39.7648 50.5716 39.9996 49.688 39.9996Z" fill="white"/>
<path d="M3.01616 39.9996C2.10217 39.9996 1.37098 39.7648 0.822589 39.2952C0.274197 38.8256 0 38.1799 0 37.3581V19.2195C0 15.8149 1.00539 13.144 3.01616 11.2069C5.02694 9.26974 7.79937 8.30118 11.3335 8.30118C13.0396 8.30118 14.639 8.71208 16.1319 9.53389C17.6552 10.3264 18.9653 11.471 20.062 12.9679C21.1284 11.4417 22.4079 10.2823 23.9008 9.48987C25.4241 8.69741 27.0693 8.30118 28.8363 8.30118C32.3704 8.30118 35.1428 9.26974 37.1536 11.2069C39.1644 13.144 40.1698 15.8149 40.1698 19.2195V37.3581C40.1698 38.1505 39.8804 38.7962 39.3015 39.2952C38.7531 39.7648 38.0219 39.9996 37.1079 39.9996C36.1939 39.9996 35.4627 39.7648 34.9144 39.2952C34.366 38.8256 34.0918 38.1799 34.0918 37.3581V19.2195C34.0918 16.9889 33.6652 15.3893 32.8122 14.4207C31.9591 13.4228 30.5577 12.9239 28.6078 12.9239C26.8408 12.9239 25.4698 13.4668 24.4949 14.5528C23.5504 15.6388 23.0782 17.1943 23.0782 19.2195V37.3581C23.0782 38.1799 22.804 38.8256 22.2556 39.2952C21.7072 39.7648 20.976 39.9996 20.062 39.9996C19.1481 39.9996 18.4169 39.7648 17.8685 39.2952C17.3505 38.8256 17.0916 38.1799 17.0916 37.3581V19.2195C17.0916 17.253 16.6041 15.7122 15.6292 14.5968C14.6543 13.4815 13.2985 12.9239 11.562 12.9239C9.61211 12.9239 8.21066 13.4228 7.35761 14.4207C6.50455 15.3893 6.07802 16.9889 6.07802 19.2195V37.3581C6.07802 38.1505 5.78859 38.7962 5.20973 39.2952C4.66134 39.7648 3.93015 39.9996 3.01616 39.9996Z" fill="white"/>
<ellipse cx="120.781" cy="2.92726" rx="3.03855" ry="2.92726" fill="white"/>
<rect x="116.422" y="24.155" width="8.72585" height="8.40624" fill="white"/>
<path d="M210 9.99982L190 29.9995M190 9.99982L210 29.9995" stroke="white" stroke-width="3" stroke-linecap="round" stroke-linejoin="round"/>
</svg>
